<?xml version="1.0" encoding="UTF-8" standalone="no"?>
<!-- Generator: Adobe Illustrator 16.0.4, SVG Export Plug-In . SVG Version: 6.00 Build 0)  -->

<svg
   xmlns:dc="http://purl.org/dc/elements/1.1/"
   xmlns:cc="http://creativecommons.org/ns#"
   xmlns:rdf="http://www.w3.org/1999/02/22-rdf-syntax-ns#"
   xmlns:svg="http://www.w3.org/2000/svg"
   xmlns="http://www.w3.org/2000/svg"
   xmlns:sodipodi="http://sodipodi.sourceforge.net/DTD/sodipodi-0.dtd"
   xmlns:inkscape="http://www.inkscape.org/namespaces/inkscape"
   version="1.1"
   id="Capa_1"
   x="0px"
   y="0px"
   width="35.070999"
   height="58.452229"
   viewBox="0 0 35.070999 58.452227"
   enable-background="new 0 0 216 146"
   xml:space="preserve"
   inkscape:version="0.91 r13725"
   sodipodi:docname="mobile-icon.svg"><metadata
     id="metadata4235"><rdf:RDF><cc:Work
         rdf:about=""><dc:format>image/svg+xml</dc:format><dc:type
           rdf:resource="http://purl.org/dc/dcmitype/StillImage" /><dc:title></dc:title></cc:Work></rdf:RDF></metadata><defs
     id="defs4233" /><sodipodi:namedview
     pagecolor="#ffffff"
     bordercolor="#666666"
     borderopacity="1"
     objecttolerance="10"
     gridtolerance="10"
     guidetolerance="10"
     inkscape:pageopacity="0"
     inkscape:pageshadow="2"
     inkscape:window-width="1193"
     inkscape:window-height="755"
     id="namedview4231"
     showgrid="false"
     inkscape:zoom="1.4351852"
     inkscape:cx="-103.00593"
     inkscape:cy="29.226112"
     inkscape:window-x="0"
     inkscape:window-y="0"
     inkscape:window-maximized="0"
     inkscape:current-layer="Capa_1"
     fit-margin-top="0"
     fit-margin-left="0"
     fit-margin-right="0"
     fit-margin-bottom="0" /><path
     d="M 33.335694,1.735306 C 32.179384,0.577875 30.808964,0 29.226114,0 L 5.845447,0 C 4.262036,0 2.892176,0.578436 1.735306,1.735306 0.578435,2.891616 0,4.262037 0,5.844887 l 0,46.761894 c 0,1.58341 0.578435,2.95327 1.735306,4.110141 1.15687,1.15687 2.52673,1.735306 4.110141,1.735306 l 23.380667,0 c 1.58285,0 2.95327,-0.578996 4.10958,-1.735306 C 34.492565,55.560051 35.071,54.190191 35.071,52.606781 l 0,-46.761894 c 0,-1.58285 -0.577875,-2.95271 -1.735306,-4.109581 z m -19.453248,4.109581 7.306669,0 c 0.487073,0 0.73033,0.243817 0.73033,0.730891 0,0.487074 -0.243257,0.730891 -0.73033,0.730891 l -7.306669,0 c -0.487074,0 -0.730891,-0.243817 -0.730891,-0.730891 0,-0.487074 0.243817,-0.730891 0.730891,-0.730891 z m 6.233873,49.342432 c -0.715758,0.714637 -1.575564,1.072796 -2.580539,1.072796 -1.004414,0 -1.86422,-0.357599 -2.579978,-1.072796 -0.715757,-0.715757 -1.073356,-1.576124 -1.073356,-2.580538 0,-1.004415 0.358159,-1.864781 1.073356,-2.579978 0.715197,-0.715198 1.575564,-1.073917 2.579978,-1.073917 1.004975,0 1.864781,0.358719 2.580539,1.073917 0.715757,0.715197 1.072796,1.575563 1.072796,2.579978 0,1.004975 -0.357599,1.864781 -1.072796,2.580538 z m 10.571577,-9.886646 c 0,0.395712 -0.144609,0.738738 -0.434387,1.027395 -0.289778,0.289217 -0.631683,0.433266 -1.026835,0.433266 l -23.381227,0 c -0.395713,0 -0.738178,-0.144609 -1.027395,-0.433266 C 4.528834,46.039411 4.384225,45.696385 4.384225,45.300673 l 0,-32.148557 c 0,-0.395713 0.144609,-0.738178 0.433827,-1.027395 0.289217,-0.288657 0.631682,-0.433827 1.027395,-0.433827 l 23.380667,0 c 0.396273,0 0.738177,0.144609 1.027955,0.433827 0.289218,0.289217 0.433266,0.631682 0.433266,1.027395 l 0,32.148557 z"
     id="path4229"
     style="fill:#ffffff;fill-opacity:1"
     inkscape:connector-curvature="0" /></svg>