<svg xmlns="http://www.w3.org/2000/svg" height="310" width="470" viewBox="0 0 466.07001 312.06002"><path d="M.43 31c30 0 36-14 42-31h26v240h-38V50h-30V23zM130 1.2h8v51h-8v-51zm21 14h-.15v37h-7.2v-51h10l8.1 31h.15v-31h7.2v51h-8.3l-9.9-37zm22-14h25v7.3h-8.4v44h-8v-44h-8.4V1.2zm36 22h11v7.3h-11v15h14v7.3h-22v-51h22v7.3h-14v14zm36 30c-.44-1.3-.73-2.1-.73-6.3v-8c0-4.7-1.6-6.5-5.3-6.5h-2.8v21h-8v-51h12c8.3 0 12 3.9 12 12v4c0 5.3-1.7 8.6-5.3 10v.15c4 1.7 5.3 5.5 5.3 11v7.9c0 2.5.07 4.3.88 6.2h-8.2zm-8.8-44v16h3.1c3 0 4.8-1.3 4.8-5.4v-5c0-3.7-1.2-5.3-4.1-5.3h-3.9zm29 6.8h-.15v37h-7.2V2h10l8.1 31h.15V2h7.2v51H275l-9.9-37zm50 37h-8.1l-1.4-9.3h-9.9l-1.4 9.3H287l8.2-51h12l8.2 51zm-18-16h7.8l-3.8-26h-.15l-3.8 26zm17-35h25v7.3h-8.4v44h-8v-44h-8.4V2zm28 0h8v51h-8V2zm13 12c0-8.2 4.3-13 12-13 7.9 0 12 4.7 12 13v27c0 8.2-4.3 13-12 13-7.9 0-12-4.7-12-13V14zm8 27c0 3.7 1.6 5 4.2 5s4.2-1.4 4.2-5V13c0-3.7-1.6-5.1-4.2-5.1s-4.2 1.4-4.2 5.1v28zm29-25h-.15v37h-7.2V2h10l8.1 31h.15V2h7.2v51H402l-9.9-37zm50 37h-8.1l-1.4-9.3h-9.9l-1.4 9.3H414l8.2-51h12l8.2 51zm-18-16h7.8l-3.8-26h-.15l-3.8 26zm22-35h8v44h13v7.3h-21v-51zM110 100h20v14h-20v28h26v14H95V61h41v14h-26v26zm66 27h.27l10-67h21v95h-14V87H193l-10 68h-14l-11-67h-.27v67h-13V60h21l11 67zm57-27h20v14h-20v28h26v14h-41V61h41v14h-26v26zm66 55c-.81-2.4-1.4-3.9-1.4-12v-15c0-8.8-3-12-9.7-12h-5.1v39h-15V60h22c15 0 22 7.2 22 22v7.4c0 9.7-3.1 16-9.7 19v.27c7.4 3.1 9.9 10 9.9 20v15c0 4.6.14 8 1.6 11h-15zm-16-81v29h5.8c5.5 0 8.9-2.4 8.9-10v-9.3c0-6.8-2.3-9.7-7.6-9.7h-7.2zm88 81h-15l-2.6-17h-18l-2.6 17h-14l15-95h22l15 95zm-34-30h14l-7-48h-.27l-7 48zm41-65h15v81h24v14h-39V60zm46 0h24c15 0 22 8.2 22 23v48c0 15-7.3 23-22 23h-24V59zm15 14v68h8.4c4.7 0 7.6-2.4 7.6-9.2v-49c0-6.8-2.8-9.2-7.6-9.2H439zM110 170c11 0 17 6.8 17 19v2.3h-11v-3.1c0-5.3-2.1-7.3-5.8-7.3s-5.8 2-5.8 7.3c0 5.4 2.3 9.5 10 16 9.8 8.6 13 15 13 23 0 12-6 19-17 19s-17-6.8-17-19v-4.6h11v5.3c0 5.3 2.3 7.2 6.1 7.2 3.7 0 6.1-1.9 6.1-7.2 0-5.4-2.3-9.5-10-16-9.8-8.6-13-15-13-23 .01-12 5.9-19 17-19zm34 51l-15-50h12l8.8 34h.21l8.8-34h11l-15 50v25h-12v-25zm56 3.1h.21l7.9-53h16v74h-11v-53h-.21l-7.9 53h-11l-8.5-53h-.21v53h-10v-74h16l8.5 53zm68-34v9.7c0 12-5.7 18-17 18h-5.5v28h-12v-74h17c12 0 17 6.5 17 18zm-23-7.8v25h5.5c3.7 0 5.7-1.7 5.7-7v-11c0-5.3-2-7-5.7-7H245zm27 7.2c0-12 6.3-19 18-19 11 0 18 6.8 18 19v39c0 12-6.3 19-18 19-11 0-18-6.8-18-19v-39zm12 39c0 5.3 2.3 7.3 6.1 7.3 3.7 0 6.1-2 6.1-7.3v-40c0-5.3-2.3-7.3-6.1-7.3-3.7 0-6.1 2-6.1 7.3v40zm47-58c11 0 17 6.8 17 19v2.3h-11v-3.1c0-5.3-2.1-7.3-5.8-7.3s-5.8 2-5.8 7.3c0 5.4 2.3 9.5 10 16 9.8 8.6 13 15 13 23 0 12-6 19-17 19s-17-6.8-17-19v-4.6h11v5.3c0 5.3 2.3 7.2 6.1 7.2 3.7 0 6.1-1.9 6.1-7.2 0-5.4-2.3-9.5-10-16-9.8-8.6-13-15-13-23 0-12 5.8-19 17-19zm24 .85h12v74h-12v-74zm31 0v57c0 5.3 2.3 7.2 6.1 7.2 3.7 0 6.1-1.9 6.1-7.2v-57h11v57c0 12-6 19-17 19s-17-6.8-17-19v-57h12zm56 53h.21l7.9-53h16v74h-11v-53h-.21l-7.9 53h-11l-8.5-53h-.21v53h-10v-74h16l8.5 53zM99 31c3.4 0 5.1 2 5.1 5.6v.69h-3.3v-.91c0-1.6-.63-2.2-1.7-2.2s-1.7.6-1.7 2.2.69 2.8 3 4.8c2.9 2.6 3.8 4.4 3.8 6.9 0 3.5-1.8 5.5-5.2 5.5s-5.2-2-5.2-5.5v-1.4h3.3v1.6c0 1.6.69 2.1 1.8 2.1s1.8-.57 1.8-2.1c0-1.6-.69-2.8-3-4.8-2.9-2.6-3.8-4.4-3.8-6.9-.03-3.5 1.7-5.6 5.1-5.6zm6.1.26h11v3.2h-3.6v19H109v-19h-3.6v-3.2zM0 250h470v5H0zM18 300v5c0 6.1-3 9.6-8.9 9.6S.2 311.1.2 305v-20c0-6.1 3-9.6 8.9-9.6s8.9 3.5 8.9 9.6v3.7h-5.6v-4.1c0-2.7-1.2-3.8-3.1-3.8s-3.1 1-3.1 3.8v21c0 2.7 1.2 3.7 3.1 3.7s3.1-.97 3.1-3.7v-5.4H18zm21-15c0-6.1 3.2-9.6 9.1-9.6s9.1 3.5 9.1 9.6v20c0 6.1-3.2 9.6-9.1 9.6S39 311.1 39 305v-20zm6 20c0 2.7 1.2 3.8 3.1 3.8s3.1-1 3.1-3.7v-21c0-2.7-1.2-3.8-3.1-3.8s-3.1 1-3.1 3.8v20zm33-29h6v33h9.8v5.4h-16v-38zm35 9.1c0-6.1 3.2-9.6 9.1-9.6s9.1 3.5 9.1 9.6v20c0 6.1-3.2 9.6-9.1 9.6s-9.1-3.5-9.1-9.6v-20zm6 20c0 2.7 1.2 3.8 3.1 3.8s3.1-1 3.1-3.7v-21c0-2.7-1.2-3.8-3.1-3.8s-3.1 1-3.1 3.8v20zm46-2.3h.11l4-27h8.3v38h-5.6v-27h-.11l-4 27h-5.6l-4.3-27h-.11v27h-5.2v-38h8.3l4.3 27zm52-18v1.4c0 3.9-1.2 6.4-3.8 7.6v.11c3.2 1.2 4.4 4.1 4.4 8.1v3.1c0 5.9-3.1 9-9.1 9h-9.4v-38h9c6.2 0 8.8 2.9 8.8 8.7zm-12-3.3v10h2.3c2.2 0 3.6-.98 3.6-4v-2.1c0-2.7-.92-3.9-3-3.9H205zm0 15v12h3.4c2 0 3.1-.92 3.1-3.7v-3.3c0-3.5-1.1-4.6-3.8-4.6H205zm33-21h6v38h-6v-38zm47 38h-6l-1-6.9h-7.3l-1 6.9h-5.5l6.1-38h8.7l6.1 38zm-14-12h5.8l-2.8-19h-.11l-2.8 19zm68-21c-1.9 0-3.1 1-3.1 3.8v4.1h-5.6v-3.7c0-6.1 3-9.6 8.9-9.6s8.9 3.5 8.9 9.6c0 5-1.8 9.1-7.4 15-3.5 3.8-4.5 5.6-4.5 7.6 0 .27 0 .54.06.81h11v5.4h-17v-4.7c0-4.2 1.5-7.4 6-12 4.6-4.8 5.9-7.8 5.9-12-.01-3.4-1.2-4.4-3.1-4.4zm30 4.1c0-6.1 3.2-9.6 9.1-9.6s9.1 3.5 9.1 9.6v20c0 6.1-3.2 9.6-9.1 9.6s-9.1-3.5-9.1-9.6v-20zm6 20c0 2.7 1.2 3.8 3.1 3.8s3.1-1 3.1-3.7v-21c0-2.7-1.2-3.8-3.1-3.8s-3.1 1-3.1 3.8v20zm37-24c4.6 0 5.6-2.2 6.6-4.8h4v38h-6v-29H412v-4.2zm41 21v3.5c0 2.7 1.2 3.7 3.1 3.7s3.1-.97 3.1-3.7v-8.4c0-2.7-1.2-3.7-3.1-3.7s-3.1 1-3.1 3.7v1.1h-5.6l1.1-22h16v5.4h-10l-.49 9.1h.11c1.1-1.8 2.8-2.8 5.2-2.8 4.4 0 6.6 3.1 6.6 8.7v8.5c0 6.1-3 9.6-8.9 9.6s-8.9-3.5-8.9-9.6v-3.2h5.6z" fill="#fff"/></svg>