<?xml version="1.0" encoding="UTF-8" standalone="no"?>
<svg
   xmlns:dc="http://purl.org/dc/elements/1.1/"
   xmlns:cc="http://creativecommons.org/ns#"
   xmlns:rdf="http://www.w3.org/1999/02/22-rdf-syntax-ns#"
   xmlns:svg="http://www.w3.org/2000/svg"
   xmlns="http://www.w3.org/2000/svg"
   xmlns:sodipodi="http://sodipodi.sourceforge.net/DTD/sodipodi-0.dtd"
   xmlns:inkscape="http://www.inkscape.org/namespaces/inkscape"
   viewBox="0 0 35.000004 35.157322"
   height="35.157322"
   width="35.000004"
   xml:space="preserve"
   version="1.1"
   id="svg2"
   inkscape:version="0.91 r13725"
   sodipodi:docname="whatsapp-icon.svg"><sodipodi:namedview
     pagecolor="#ffffff"
     bordercolor="#666666"
     borderopacity="1"
     objecttolerance="10"
     gridtolerance="10"
     guidetolerance="10"
     inkscape:pageopacity="0"
     inkscape:pageshadow="2"
     inkscape:window-width="1284"
     inkscape:window-height="758"
     id="namedview12"
     showgrid="false"
     inkscape:zoom="1.06"
     inkscape:cx="-211.23229"
     inkscape:cy="74.478437"
     inkscape:window-x="0"
     inkscape:window-y="0"
     inkscape:window-maximized="0"
     inkscape:current-layer="svg2"
     fit-margin-top="0"
     fit-margin-left="0"
     fit-margin-right="0"
     fit-margin-bottom="0" /><metadata
     id="metadata8"><rdf:RDF><cc:Work
         rdf:about=""><dc:format>image/svg+xml</dc:format><dc:type
           rdf:resource="http://purl.org/dc/dcmitype/StillImage" /><dc:title></dc:title></cc:Work></rdf:RDF></metadata><defs
     id="defs6"><clipPath
       id="clipPath16"
       clipPathUnits="userSpaceOnUse"><path
         id="path18"
         d="m 0,1024 1024,0 L 1024,0 0,0 0,1024 Z"
         inkscape:connector-curvature="0" /></clipPath></defs><g
     transform="matrix(0.04745705,0,0,-0.04745705,-7.2726031,42.161403)"
     id="g10"><g
       style="fill:#ffffff;fill-opacity:1"
       id="g12"><g
         style="fill:#ffffff;fill-opacity:1"
         clip-path="url(#clipPath16)"
         id="g14"><g
           style="fill:#ffffff;fill-opacity:1"
           transform="translate(690.959,444.4678)"
           id="g20"><path
             id="path22"
             style="fill:#ffffff;fill-opacity:1;fill-rule:evenodd;stroke:none"
             d="m 0,0 c -9.176,4.591 -54.286,26.782 -62.697,29.843 -8.41,3.06 -14.527,4.591 -20.644,-4.592 -6.116,-9.182 -23.7,-29.843 -29.053,-35.964 -5.351,-6.122 -10.704,-6.888 -19.879,-2.296 -9.175,4.591 -38.74,14.277 -73.786,45.527 -27.275,24.32 -45.691,54.36 -51.043,63.542 -5.352,9.183 -0.569,14.148 4.024,18.72 4.127,4.11 9.175,10.713 13.763,16.07 4.587,5.356 6.116,9.182 9.174,15.303 3.059,6.122 1.53,11.479 -0.764,16.07 -2.294,4.591 -20.643,49.739 -28.29,68.104 -7.447,17.886 -15.012,15.466 -20.644,15.746 -5.346,0.266 -11.469,0.323 -17.585,0.323 -6.117,0 -16.057,-2.296 -24.468,-11.478 -8.41,-9.183 -32.112,-31.374 -32.112,-76.521 0,-45.147 32.877,-88.763 37.465,-94.885 4.587,-6.122 64.699,-98.771 156.741,-138.502 21.891,-9.45 38.983,-15.093 52.307,-19.323 21.981,-6.979 41.983,-5.995 57.793,-3.633 17.628,2.633 54.285,22.19 61.931,43.616 7.646,21.426 7.646,39.791 5.352,43.617 C 15.292,-6.888 9.175,-4.592 0,0 m -167.415,-228.515 -0.125,0 c -54.766,0.022 -108.483,14.729 -155.343,42.53 l -11.146,6.613 -115.516,-30.293 30.834,112.592 -7.258,11.543 c -30.552,48.58 -46.689,104.728 -46.665,162.379 0.067,168.23 136.986,305.095 305.34,305.095 C -85.773,381.913 -9.14,350.134 48.485,292.462 106.11,234.79 137.827,158.13 137.796,76.603 137.727,-91.64 0.81,-228.515 -167.415,-228.515 M 92.343,336.286 c -69.329,69.387 -161.53,107.619 -259.762,107.658 -202.403,0 -367.134,-164.668 -367.215,-367.072 -0.027,-64.699 16.883,-127.855 49.016,-183.523 l -52.095,-190.229 194.666,51.047 c 53.634,-29.244 114.022,-44.656 175.482,-44.682 l 0.15,0 0.001,0 c 202.382,0 367.128,164.69 367.21,367.094 0.038,98.088 -38.122,190.32 -107.453,259.707"
             inkscape:connector-curvature="0" /></g></g></g></g></svg>